{
.appVersion = "3091";
DisplayStrings = (
o
);
date = "2021-08-16 17:07:48 +0000";
familyName = TMNT;
fontMaster = (
{
alignmentZones = (
"{500, 10}",
"{0, -10}"
);
ascender = 800;
capHeight = 700;
descender = -200;
id = "E8C3E522-08D8-4F53-83D1-52B480F39AFA";
xHeight = 500;
}
);
glyphs = (
{
color = 1;
glyphname = E;
lastChange = "2021-08-18 19:05:50 +0000";
layers = (
{
layerId = "E8C3E522-08D8-4F53-83D1-52B480F39AFA";
paths = (
{
closed = 1;
nodes = (
"617 0 LINE",
"617 87 LINE",
"539 139 LINE",
"273 139 LINE",
"176 75 LINE",
"214 55 LINE",
"214 285 LINE",
"572 285 LINE",
"572 424 LINE",
"214 424 LINE",
"214 638 LINE",
"176 618 LINE",
"263 561 LINE",
"529 561 LINE",
"607 613 LINE",
"607 700 LINE",
"55 700 LINE",
"55 0 LINE"
);
}
);
width = 647;
},
{
associatedMasterId = "E8C3E522-08D8-4F53-83D1-52B480F39AFA";
components = (
{
alignment = -1;
name = _bar;
transform = "{1, 0, 0, 1.3941, 178, -558}";
},
{
alignment = -1;
name = _bar;
transform = "{1, 0, 0, -1.3941, 168, 1308}";
},
{
name = _straightstem;
transform = "{1, 0, 0, 0.93797, 36, 0}";
},
{
name = _straightbar;
transform = "{1, 0, 0, 1.3941, 153, -244}";
}
);
layerId = "863AD489-730F-4FE0-A0FB-E8D7961DB703";
name = "Aug 17 21, 19:47";
width = 627;
}
);
unicode = 0045;
},
{
color = 1;
glyphname = H;
lastChange = "2021-08-18 18:38:43 +0000";
layers = (
{
layerId = "E8C3E522-08D8-4F53-83D1-52B480F39AFA";
paths = (
{
closed = 1;
nodes = (
"214 0 LINE",
"214 603 LINE",
"166 701 LINE",
"55 701 LINE",
"55 0 LINE"
);
},
{
closed = 1;
nodes = (
"607 248 LINE",
"607 387 LINE",
"118 387 LINE",
"118 248 LINE"
);
},
{
closed = 1;
nodes = (
"668 0 LINE",
"668 603 LINE",
"620 701 LINE",
"509 701 LINE",
"509 0 LINE"
);
}
);
width = 723;
},
{
associatedMasterId = "E8C3E522-08D8-4F53-83D1-52B480F39AFA";
components = (
{
alignment = -1;
name = _stem;
transform = "{1, 0, 0, 0.93831, 56, 0}";
},
{
alignment = -1;
name = _bar;
transform = "{1.16358, 0, 0, 1.3941, 119, -290}";
},
{
alignment = -1;
name = _stem;
transform = "{1, 0, 0, 0.93831, 510, 0}";
}
);
layerId = "AD012F49-4452-4C6E-86DA-E3D3B727F4A1";
name = "Aug 17 21, 19:48";
width = 724;
}
);
unicode = 0048;
},
{
color = 1;
glyphname = I;
lastChange = "2021-08-18 19:05:33 +0000";
layers = (
{
layerId = "E8C3E522-08D8-4F53-83D1-52B480F39AFA";
paths = (
{
closed = 1;
nodes = (
"209 0 LINE",
"209 603 LINE",
"161 701 LINE",
"50 701 LINE",
"50 0 LINE"
);
}
);
width = 259;
},
{
associatedMasterId = "E8C3E522-08D8-4F53-83D1-52B480F39AFA";
components = (
{
alignment = -1;
name = _stem;
transform = "{1, 0, 0, 0.93831, 225, 0}";
},
{
alignment = -1;
name = _bar;
transform = "{1.2169, 0, 0, -1.3941, 25, 1309}";
},
{
alignment = -1;
name = _bar;
transform = "{1.2169, 0, 0, 1.3941, 25, -558}";
},
{
alignment = -1;
name = _bar;
transform = "{1.2169, 0, 0, -1.3941, 65, 1309}";
},
{
alignment = -1;
name = _bar;
transform = "{1.2169, 0, 0, 1.3941, 65, -558}";
}
);
layerId = "D59DE561-8433-40A0-99DA-C763E57596A9";
name = "Aug 17 21, 19:51";
width = 601;
}
);
unicode = 0049;
},
{
color = 6;
glyphname = O;
lastChange = "2021-08-18 18:39:56 +0000";
layers = (
{
layerId = "E8C3E522-08D8-4F53-83D1-52B480F39AFA";
paths = (
{
closed = 1;
nodes = (
"432 -3 LINE",
"590 -3 OFFCURVE",
"695 121 OFFCURVE",
"695 234 CURVE",
"695 464 LINE",
"695 590 OFFCURVE",
"590 700 OFFCURVE",
"432 700 CURVE",
"314 700 LINE",
"177 700 OFFCURVE",
"50 611 OFFCURVE",
"50 464 CURVE",
"50 234 LINE",
"50 121 OFFCURVE",
"178 -3 OFFCURVE",
"314 -3 CURVE"
);
},
{
closed = 1;
nodes = (
"213 234 LINE",
"213 464 LINE",
"314 576 LINE",
"432 576 LINE",
"532 464 LINE",
"532 234 LINE",
"432 121 LINE",
"314 121 LINE"
);
}
);
width = 745;
}
);
unicode = 004F;
},
{
color = 6;
glyphname = Oacute;
lastChange = "2021-08-18 22:12:41 +0000";
layers = (
{
layerId = "E8C3E522-08D8-4F53-83D1-52B480F39AFA";
paths = (
{
closed = 1;
nodes = (
"432 -3 LINE",
"590 -3 OFFCURVE",
"695 121 OFFCURVE",
"695 234 CURVE",
"695 464 LINE",
"695 590 OFFCURVE",
"590 700 OFFCURVE",
"432 700 CURVE",
"314 700 LINE",
"177 700 OFFCURVE",
"50 611 OFFCURVE",
"50 464 CURVE",
"50 234 LINE",
"50 121 OFFCURVE",
"178 -3 OFFCURVE",
"314 -3 CURVE"
);
},
{
closed = 1;
nodes = (
"213 234 LINE",
"213 464 LINE",
"314 576 LINE",
"432 576 LINE",
"532 464 LINE",
"532 234 LINE",
"432 121 LINE",
"314 121 LINE"
);
},
{
closed = 1;
nodes = (
"439 742 OFFCURVE",
"522 800 OFFCURVE",
"522 854 CURVE",
"444 916 LINE",
"393 834 LINE",
"320 800 LINE",
"355 742 LINE"
);
}
);
width = 745;
}
);
unicode = 00D3;
},
{
color = 1;
glyphname = P;
lastChange = "2021-08-18 19:05:21 +0000";
layers = (
{
layerId = "E8C3E522-08D8-4F53-83D1-52B480F39AFA";
paths = (
{
closed = 1;
nodes = (
"209 0 LINE",
"209 190 LINE",
"450 190 LINE SMOOTH",
"570 190 OFFCURVE",
"648 267 OFFCURVE",
"648 392 CURVE SMOOTH",
"648 497 LINE SMOOTH",
"648 622 OFFCURVE",
"570 700 OFFCURVE",
"450 700 CURVE SMOOTH",
"50 700 LINE",
"50 0 LINE"
);
},
{
closed = 1;
nodes = (
"209 640 LINE",
"172 620 LINE",
"260 561 LINE",
"437 561 LINE",
"489 499 LINE",
"489 390 LINE",
"437 329 LINE",
"260 329 LINE",
"172 270 LINE",
"209 250 LINE"
);
}
);
width = 688;
},
{
associatedMasterId = "E8C3E522-08D8-4F53-83D1-52B480F39AFA";
components = (
{
alignment = -1;
name = _arch;
transform = "{1, 0, 0, -1.07719, 315, 739}";
},
{
name = _straightstem;
transform = "{1, 0, 0, 0.93797, 60, 0}";
},
{
name = _halfbar;
transform = "{-1, 0, 0, -1.3941, 452, 1308}";
},
{
name = _halfbar;
transform = "{-1, 0, 0, 1.3941, 452, -368}";
}
);
layerId = "8E5674A5-F617-4A7C-A75E-9A1297B0B08D";
name = "Aug 17 21, 19:51";
width = 658;
}
);
unicode = 0050;
},
{
color = 1;
glyphname = T;
lastChange = "2021-08-18 19:05:56 +0000";
layers = (
{
layerId = "E8C3E522-08D8-4F53-83D1-52B480F39AFA";
paths = (
{
closed = 1;
nodes = (
"399 0 LINE",
"399 650 LINE",
"240 650 LINE",
"240 0 LINE"
);
},
{
closed = 1;
nodes = (
"526 562 LINE",
"621 614 LINE",
"621 701 LINE",
"10 701 LINE",
"10 612 LINE",
"102 562 LINE"
);
}
);
width = 631;
},
{
associatedMasterId = "E8C3E522-08D8-4F53-83D1-52B480F39AFA";
components = (
{
alignment = -1;
name = _stem;
transform = "{1, 0, 0, 0.93831, 225, 0}";
},
{
alignment = -1;
name = _bar;
transform = "{1.2169, 0, 0, -1.3941, 5, 1309}";
},
{
alignment = -1;
name = _bar;
transform = "{1.2169, 0, 0, -1.3941, 85, 1309}";
}
);
layerId = "E46E4F4A-4E23-4A2D-BA0A-F050A5AF7E51";
name = "Aug 17 21, 19:57";
width = 601;
}
);
unicode = 0054;
},
{
color = 1;
glyphname = I.001;
lastChange = "2021-08-18 18:37:05 +0000";
layers = (
{
layerId = "E8C3E522-08D8-4F53-83D1-52B480F39AFA";
paths = (
{
closed = 1;
nodes = (
"384 50 LINE",
"384 701 LINE",
"225 701 LINE",
"225 50 LINE"
);
},
{
closed = 1;
nodes = (
"556 0 LINE",
"556 87 LINE",
"461 139 LINE",
"137 139 LINE",
"45 89 LINE",
"45 0 LINE"
);
},
{
closed = 1;
nodes = (
"461 612 LINE",
"556 664 LINE",
"556 751 LINE",
"45 751 LINE",
"45 662 LINE",
"137 612 LINE"
);
}
);
width = 601;
},
{
associatedMasterId = "E8C3E522-08D8-4F53-83D1-52B480F39AFA";
components = (
{
alignment = -1;
name = _stem;
transform = "{1, 0, 0, 0.93831, 225, 0}";
},
{
alignment = -1;
name = _bar;
transform = "{1.2169, 0, 0, -1.3941, 25, 1309}";
},
{
alignment = -1;
name = _bar;
transform = "{1.2169, 0, 0, 1.3941, 25, -558}";
},
{
alignment = -1;
name = _bar;
transform = "{1.2169, 0, 0, -1.3941, 65, 1309}";
},
{
alignment = -1;
name = _bar;
transform = "{1.2169, 0, 0, 1.3941, 65, -558}";
}
);
layerId = "D59DE561-8433-40A0-99DA-C763E57596A9";
name = "Aug 17 21, 19:51";
width = 601;
}
);
},
{
color = 6;
glyphname = b;
lastChange = "2021-08-18 19:09:49 +0000";
layers = (
{
layerId = "E8C3E522-08D8-4F53-83D1-52B480F39AFA";
paths = (
{
closed = 1;
nodes = (
"204 0 LINE",
"202 718 LINE",
"157 800 LINE",
"40 800 LINE",
"41 0 LINE"
);
},
{
closed = 1;
nodes = (
"514 0 OFFCURVE",
"603 52 OFFCURVE",
"608 188 CURVE",
"608 292 LINE",
"608 459 OFFCURVE",
"508 515 OFFCURVE",
"352 515 CURVE SMOOTH",
"253 515 OFFCURVE",
"160 448 OFFCURVE",
"127 385 CURVE",
"183 335 LINE",
"278 412 LINE",
"346 412 LINE",
"456 305 LINE",
"456 182 LINE",
"306 87 LINE",
"183 139 LINE",
"138 79 LINE",
"189 27 OFFCURVE",
"283 0 OFFCURVE",
"378 0 CURVE SMOOTH"
);
}
);
width = 633;
}
);
unicode = 0062;
},
{
color = 6;
glyphname = e;
lastChange = "2021-08-18 19:09:35 +0000";
layers = (
{
layerId = "E8C3E522-08D8-4F53-83D1-52B480F39AFA";
paths = (
{
closed = 1;
nodes = (
"154 179 LINE",
"608 179 LINE",
"608 277 LINE",
"608 428 OFFCURVE",
"535 515 OFFCURVE",
"375 515 CURVE",
"278 515 LINE",
"124 515 OFFCURVE",
"40 431 OFFCURVE",
"40 317 CURVE",
"40 198 LINE",
"40 64 OFFCURVE",
"125 0 OFFCURVE",
"284 0 CURVE",
"577 0 LINE",
"577 58 LINE",
"523 98 LINE",
"257 98 LINE",
"198 179 LINE",
"198 320 LINE",
"278 416 LINE",
"375 416 LINE",
"450 320 LINE",
"450 279 LINE",
"154 279 LINE"
);
}
);
width = 643;
}
);
unicode = 0065;
},
{
color = 9;
glyphname = i;
lastChange = "2021-08-18 19:08:32 +0000";
layers = (
{
layerId = "E8C3E522-08D8-4F53-83D1-52B480F39AFA";
paths = (
{
closed = 1;
nodes = (
"237 667 LINE",
"143 755 LINE",
"49 657 LINE",
"143 570 LINE"
);
},
{
closed = 1;
nodes = (
"280 -16 LINE",
"280 91 LINE",
"205 133 LINE",
"205 500 LINE",
"102 500 LINE",
"40 416 LINE",
"40 146 LINE SMOOTH",
"40 42 OFFCURVE",
"121 -16 OFFCURVE",
"237 -16 CURVE SMOOTH"
);
}
);
width = 300;
}
);
unicode = 0069;
},
{
color = 9;
glyphname = l;
lastChange = "2021-08-18 19:08:39 +0000";
layers = (
{
layerId = "E8C3E522-08D8-4F53-83D1-52B480F39AFA";
paths = (
{
closed = 1;
nodes = (
"280 -16 LINE",
"280 91 LINE",
"205 133 LINE",
"205 800 LINE",
"102 800 LINE",
"40 716 LINE",
"40 146 LINE SMOOTH",
"40 42 OFFCURVE",
"121 -16 OFFCURVE",
"237 -16 CURVE SMOOTH"
);
}
);
width = 300;
}
);
unicode = 006C;
},
{
color = 9;
glyphname = n;
lastChange = "2021-08-18 19:07:41 +0000";
layers = (
{
layerId = "E8C3E522-08D8-4F53-83D1-52B480F39AFA";
paths = (
{
closed = 1;
nodes = (
"205 0 LINE",
"205 416 LINE",
"143 500 LINE",
"40 500 LINE",
"40 0 LINE"
);
},
{
closed = 1;
nodes = (
"691 -16 LINE",
"691 91 LINE",
"618 133 LINE",
"618 318 LINE SMOOTH",
"618 429 OFFCURVE",
"499 516 OFFCURVE",
"366 516 CURVE SMOOTH",
"241 516 OFFCURVE",
"153 429 OFFCURVE",
"127 351 CURVE",
"198 308 LINE",
"280 393 LINE",
"382 393 LINE",
"453 311 LINE",
"453 146 LINE SMOOTH",
"453 42 OFFCURVE",
"534 -16 OFFCURVE",
"650 -16 CURVE SMOOTH"
);
}
);
width = 711;
}
);
unicode = 006E;
},
{
glyphname = o;
lastChange = "2021-08-18 22:12:50 +0000";
layers = (
{
layerId = "E8C3E522-08D8-4F53-83D1-52B480F39AFA";
paths = (
{
closed = 1;
nodes = (
"381 -3 LINE",
"511 -3 OFFCURVE",
"614 71 OFFCURVE",
"614 192 CURVE",
"614 318 LINE",
"614 428 OFFCURVE",
"523 515 OFFCURVE",
"381 515 CURVE",
"284 515 LINE",
"136 515 OFFCURVE",
"50 440 OFFCURVE",
"50 317 CURVE",
"50 189 LINE",
"50 69 OFFCURVE",
"164 -3 OFFCURVE",
"284 -3 CURVE"
);
},
{
closed = 1;
nodes = (
"193 189 LINE",
"193 317 LINE",
"284 415 LINE",
"381 415 LINE",
"471 318 LINE",
"471 192 LINE",
"381 98 LINE",
"284 98 LINE"
);
}
);
width = 664;
}
);
unicode = 006F;
},
{
color = 6;
glyphname = q;
lastChange = "2021-08-18 19:09:55 +0000";
layers = (
{
layerId = "E8C3E522-08D8-4F53-83D1-52B480F39AFA";
paths = (
{
closed = 1;
nodes = (
"429 500 LINE",
"431 -118 LINE",
"476 -200 LINE",
"593 -200 LINE",
"592 500 LINE"
);
},
{
closed = 1;
nodes = (
"119 500 OFFCURVE",
"30 448 OFFCURVE",
"25 312 CURVE",
"25 208 LINE",
"25 41 OFFCURVE",
"125 -15 OFFCURVE",
"281 -15 CURVE SMOOTH",
"380 -15 OFFCURVE",
"473 52 OFFCURVE",
"506 115 CURVE",
"450 165 LINE",
"355 88 LINE",
"287 88 LINE",
"177 195 LINE",
"177 318 LINE",
"327 413 LINE",
"450 361 LINE",
"495 421 LINE",
"444 473 OFFCURVE",
"350 500 OFFCURVE",
"255 500 CURVE SMOOTH"
);
}
);
width = 633;
},
{
associatedMasterId = "E8C3E522-08D8-4F53-83D1-52B480F39AFA";
layerId = "C88975D6-7C1D-459F-9E22-202F4EADC34B";
name = "Aug 18 21, 13:23";
paths = (
{
closed = 1;
nodes = (
"516 491 LINE",
"475 400 LINE",
"477 -118 LINE",
"522 -200 LINE",
"639 -200 LINE",
"638 478 LINE"
);
},
{
closed = 1;
nodes = (
"171 514 OFFCURVE",
"60 398 OFFCURVE",
"60 249 CURVE SMOOTH",
"60 82 OFFCURVE",
"149 0 OFFCURVE",
"317 0 CURVE SMOOTH",
"416 0 OFFCURVE",
"483 60 OFFCURVE",
"512 105 CURVE",
"512 152 LINE",
"361 89 LINE",
"244 183 LINE",
"241 309 LINE",
"329 400 LINE",
"436 400 LINE",
"485 400 LINE",
"638 478 LINE",
"573 491 OFFCURVE",
"433 514 OFFCURVE",
"329 514 CURVE SMOOTH"
);
}
);
width = 699;
}
);
unicode = 0071;
},
{
color = 9;
glyphname = u;
lastChange = "2021-08-18 19:09:11 +0000";
layers = (
{
layerId = "E8C3E522-08D8-4F53-83D1-52B480F39AFA";
paths = (
{
closed = 1;
nodes = (
"631 0 LINE",
"631 500 LINE",
"466 500 LINE",
"466 84 LINE",
"528 0 LINE"
);
},
{
closed = 1;
nodes = (
"-10 517 LINE",
"-10 410 LINE",
"64 368 LINE",
"64 183 LINE SMOOTH",
"64 72 OFFCURVE",
"183 -16 OFFCURVE",
"316 -16 CURVE SMOOTH",
"441 -16 OFFCURVE",
"529 72 OFFCURVE",
"555 150 CURVE",
"484 193 LINE",
"402 108 LINE",
"300 108 LINE",
"229 190 LINE",
"229 355 LINE SMOOTH",
"229 459 OFFCURVE",
"148 517 OFFCURVE",
"31 517 CURVE SMOOTH"
);
}
);
width = 671;
}
);
unicode = 0075;
},
{
color = 9;
glyphname = v;
lastChange = "2021-08-18 19:10:55 +0000";
layers = (
{
layerId = "E8C3E522-08D8-4F53-83D1-52B480F39AFA";
paths = (
{
closed = 1;
nodes = (
"385 0 LINE",
"621 420 LINE",
"599 515 LINE",
"484 515 LINE",
"285 88 LINE",
"346 88 LINE",
"144 515 LINE",
"29 515 LINE",
"0 420 LINE",
"236 0 LINE"
);
}
);
width = 621;
}
);
unicode = 0076;
},
{
glyphname = bar;
lastChange = "2021-08-16 22:27:39 +0000";
layers = (
{
layerId = "E8C3E522-08D8-4F53-83D1-52B480F39AFA";
paths = (
{
closed = 1;
nodes = (
"71 -200 LINE",
"71 800 LINE",
"0 800 LINE",
"0 -200 LINE"
);
}
);
width = 71;
}
);
unicode = 007C;
},
{
color = 9;
glyphname = acute;
lastChange = "2021-08-18 18:13:53 +0000";
layers = (
{
layerId = "E8C3E522-08D8-4F53-83D1-52B480F39AFA";
paths = (
{
closed = 1;
nodes = (
"73 557 LINE",
"246 695 LINE",
"213 739 LINE",
"134 739 LINE",
"0 612 LINE",
"26 557 LINE"
);
}
);
width = 246;
}
);
unicode = 00B4;
},
{
glyphname = _accent;
lastChange = "2021-08-16 18:58:14 +0000";
layers = (
{
layerId = "E8C3E522-08D8-4F53-83D1-52B480F39AFA";
paths = (
{
closed = 1;
nodes = (
"327 736 LINE",
"249 857 LINE",
"0 712 LINE",
"74 609 LINE"
);
}
);
width = 327;
}
);
},
{
glyphname = _dot;
lastChange = "2021-08-16 17:45:37 +0000";
layers = (
{
layerId = "E8C3E522-08D8-4F53-83D1-52B480F39AFA";
paths = (
{
closed = 1;
nodes = (
"224 595 LINE",
"124 693 LINE",
"0 581 LINE",
"102 486 LINE"
);
}
);
width = 224;
}
);
},
{
glyphname = _halfarch;
lastChange = "2021-08-16 22:41:49 +0000";
layers = (
{
layerId = "E8C3E522-08D8-4F53-83D1-52B480F39AFA";
paths = (
{
closed = 1;
nodes = (
"343 252 LINE",
"343 322 LINE SMOOTH",
"343 438 OFFCURVE",
"265 510 OFFCURVE",
"145 510 CURVE SMOOTH",
"0 510 LINE",
"0 420 LINE",
"96 420 LINE",
"184 324 LINE",
"184 252 LINE"
);
}
);
width = 343;
}
);
},
{
glyphname = _shortstem;
lastChange = "2021-08-16 18:04:04 +0000";
layers = (
{
layerId = "E8C3E522-08D8-4F53-83D1-52B480F39AFA";
paths = (
{
closed = 1;
nodes = (
"159 0 LINE",
"159 396 LINE",
"111 500 LINE",
"0 500 LINE",
"0 0 LINE"
);
}
);
width = 159;
}
);
},
{
glyphname = _stem;
lastChange = "2021-08-16 18:04:52 +0000";
layers = (
{
layerId = "E8C3E522-08D8-4F53-83D1-52B480F39AFA";
paths = (
{
closed = 1;
nodes = (
"159 0 LINE",
"159 696 LINE",
"111 800 LINE",
"0 800 LINE",
"0 0 LINE"
);
}
);
width = 159;
}
);
},
{
glyphname = _straightstem;
lastChange = "2021-08-18 00:21:39 +0000";
layers = (
{
layerId = "E8C3E522-08D8-4F53-83D1-52B480F39AFA";
paths = (
{
closed = 1;
nodes = (
"159 0 LINE",
"159 800 LINE",
"0 800 LINE",
"0 0 LINE"
);
}
);
width = 159;
}
);
},
{
export = 0;
glyphname = _Arch;
lastChange = "2021-08-16 22:41:33 +0000";
layers = (
{
layerId = "E8C3E522-08D8-4F53-83D1-52B480F39AFA";
paths = (
{
closed = 1;
nodes = (
"343 124 LINE",
"247 124 LINE",
"159 226 LINE",
"159 525 LINE",
"247 628 LINE",
"343 628 LINE",
"343 761 LINE",
"198 761 LINE SMOOTH",
"78 761 OFFCURVE",
"0 654 OFFCURVE",
"0 482 CURVE SMOOTH",
"0 269 LINE SMOOTH",
"0 97 OFFCURVE",
"78 -10 OFFCURVE",
"198 -10 CURVE SMOOTH",
"343 -10 LINE"
);
}
);
width = 343;
}
);
},
{
export = 0;
glyphname = _arch;
lastChange = "2021-08-16 22:41:59 +0000";
layers = (
{
layerId = "E8C3E522-08D8-4F53-83D1-52B480F39AFA";
paths = (
{
closed = 1;
nodes = (
"145 -10 LINE SMOOTH",
"265 -10 OFFCURVE",
"343 62 OFFCURVE",
"343 178 CURVE SMOOTH",
"343 322 LINE SMOOTH",
"343 438 OFFCURVE",
"265 510 OFFCURVE",
"145 510 CURVE SMOOTH",
"0 510 LINE",
"0 420 LINE",
"96 420 LINE",
"184 324 LINE",
"184 176 LINE",
"96 80 LINE",
"0 80 LINE",
"0 -10 LINE"
);
}
);
width = 343;
}
);
},
{
export = 0;
glyphname = _bar;
lastChange = "2021-08-16 18:42:47 +0000";
layers = (
{
layerId = "E8C3E522-08D8-4F53-83D1-52B480F39AFA";
paths = (
{
closed = 1;
nodes = (
"420 400 LINE",
"420 463 LINE",
"342 500 LINE",
"76 500 LINE",
"0 464 LINE",
"0 400 LINE"
);
}
);
width = 420;
}
);
},
{
export = 0;
glyphname = _corner;
lastChange = "2021-08-16 22:44:51 +0000";
layers = (
{
layerId = "E8C3E522-08D8-4F53-83D1-52B480F39AFA";
paths = (
{
closed = 1;
nodes = (
"0 130 LINE",
"28 56 OFFCURVE",
"113 0 OFFCURVE",
"176 0 CURVE",
"265 122 LINE",
"164 136 LINE",
"102 214 LINE"
);
}
);
width = 265;
}
);
},
{
export = 0;
glyphname = _diagonal;
lastChange = "2021-08-16 22:23:40 +0000";
layers = (
{
layerId = "E8C3E522-08D8-4F53-83D1-52B480F39AFA";
paths = (
{
closed = 1;
nodes = (
"334 0 LINE",
"365 87 LINE",
"131 500 LINE",
"50 500 LINE",
"5 354 LINE",
"279 0 LINE"
);
}
);
width = 365;
}
);
},
{
color = 3;
export = 0;
glyphname = _halfbar;
lastChange = "2021-08-18 00:44:58 +0000";
layers = (
{
layerId = "E8C3E522-08D8-4F53-83D1-52B480F39AFA";
paths = (
{
closed = 1;
nodes = (
"260 400 LINE",
"260 463 LINE",
"182 500 LINE",
"0 500 LINE",
"0 400 LINE"
);
}
);
width = 260;
}
);
},
{
export = 0;
glyphname = _shoulder;
lastChange = "2021-08-16 22:42:14 +0000";
layers = (
{
layerId = "E8C3E522-08D8-4F53-83D1-52B480F39AFA";
paths = (
{
closed = 1;
nodes = (
"523 244 LINE",
"523 304 LINE SMOOTH",
"523 429 OFFCURVE",
"462 508 OFFCURVE",
"308 508 CURVE SMOOTH",
"200 508 OFFCURVE",
"120 455 OFFCURVE",
"76 378 CURVE",
"140 339 LINE",
"205 404 LINE",
"271 404 LINE",
"364 308 LINE",
"364 244 LINE"
);
}
);
width = 600;
}
);
},
{
export = 0;
glyphname = _straightbar;
lastChange = "2021-08-18 00:22:59 +0000";
layers = (
{
layerId = "E8C3E522-08D8-4F53-83D1-52B480F39AFA";
paths = (
{
closed = 1;
nodes = (
"420 400 LINE",
"420 500 LINE",
"0 500 LINE",
"0 400 LINE"
);
}
